<svg width="45" height="42" viewBox="0 0 45 42" fill="none" xmlns="http://www.w3.org/2000/svg">
<path d="M2.189 19.173C2.16502 18.8969 2.19871 18.6187 2.28792 18.3563C2.37713 18.0939 2.51992 17.8528 2.70722 17.6485C2.89453 17.4442 3.12226 17.281 3.37597 17.1694C3.62967 17.0578 3.90382 17.0001 4.181 17H8C8.53043 17 9.03914 17.2107 9.41421 17.5858C9.78929 17.9609 10 18.4696 10 19V38C10 38.5304 9.78929 39.0391 9.41421 39.4142C9.03914 39.7893 8.53043 40 8 40H5.834C5.33343 40.0001 4.85101 39.8125 4.48202 39.4743C4.11303 39.136 3.8843 38.6717 3.841 38.173L2.189 19.173V19.173Z" stroke="black" stroke-width="4" stroke-linecap="round" stroke-linejoin="round"/>
<path d="M16 18.375C16 17.539 16.52 16.791 17.275 16.435C18.924 15.657 21.733 14.094 23 11.981C24.633 9.25699 24.941 4.33599 24.991 3.20899C24.998 3.05099 24.994 2.89299 25.015 2.73699C25.286 0.783994 29.055 3.06499 30.5 5.47699C31.285 6.78499 31.385 8.50399 31.303 9.84699C31.214 11.283 30.793 12.67 30.38 14.048L29.5 16.985H40.357C40.666 16.985 40.9708 17.0566 41.2475 17.1941C41.5242 17.3317 41.7653 17.5315 41.9518 17.7779C42.1383 18.0243 42.2651 18.3105 42.3224 18.6142C42.3797 18.9178 42.3659 19.2306 42.282 19.528L36.912 38.544C36.7935 38.9634 36.5412 39.3326 36.1935 39.5954C35.8458 39.8582 35.4218 40.0003 34.986 40H18C17.4696 40 16.9609 39.7893 16.5858 39.4142C16.2107 39.0391 16 38.5304 16 38V18.375Z" stroke="black" stroke-width="4" stroke-linecap="round" stroke-linejoin="round"/>
</svg>
